<?xml version="1.0" encoding="UTF-8" standalone="no"?>
<!-- Created with Inkscape (http://www.inkscape.org/) -->

<svg
   width="28.719177mm"
   height="26.59185mm"
   viewBox="0 0 28.719177 26.59185"
   version="1.1"
   id="svg5"
   inkscape:version="1.1 (c68e22c387, 2021-05-23)"
   sodipodi:docname="Icon.svg"
   inkscape:export-filename="E:\Users\Ben\OneDrive\Personal\Dad\DIGGERS4U\Logo.png"
   inkscape:export-xdpi="96"
   inkscape:export-ydpi="96"
   xmlns:inkscape="http://www.inkscape.org/namespaces/inkscape"
   xmlns:sodipodi="http://sodipodi.sourceforge.net/DTD/sodipodi-0.dtd"
   xmlns="http://www.w3.org/2000/svg"
   xmlns:svg="http://www.w3.org/2000/svg">
  <sodipodi:namedview
     id="namedview7"
     pagecolor="#ffffff"
     bordercolor="#666666"
     borderopacity="1.0"
     inkscape:pageshadow="2"
     inkscape:pageopacity="0.0"
     inkscape:pagecheckerboard="true"
     inkscape:document-units="mm"
     showgrid="false"
     showguides="true"
     inkscape:guide-bbox="true"
     inkscape:zoom="1.0263363"
     inkscape:cx="430.17089"
     inkscape:cy="14.127923"
     inkscape:window-width="2560"
     inkscape:window-height="1377"
     inkscape:window-x="-8"
     inkscape:window-y="-8"
     inkscape:window-maximized="1"
     inkscape:current-layer="layer1"
     fit-margin-top="0"
     fit-margin-left="0"
     fit-margin-right="0"
     fit-margin-bottom="0" />
  <defs
     id="defs2" />
  <g
     inkscape:label="Layer 1"
     inkscape:groupmode="layer"
     id="layer1"
     transform="translate(2.221616,-135.92969)">
    <path
       id="path81"
       style="fill:#000000;fill-rule:evenodd;stroke-width:0.056313"
       d="m 24.493314,159.70137 c -2.345793,1.9324 -5.813954,1.59729 -7.746357,-0.7485 8.494874,-6.99784 0,0 8.494874,-6.99784 1.932397,2.34578 1.597276,5.81395 -0.748517,7.74634 z"
       sodipodi:nodetypes="sccs" />
    <path
       id="path1894"
       style="fill:#ffcc00;stroke-width:0.0303047"
       d="m 22.184774,140.3074 c 1.43776,2.60191 4.504669,13.22784 3.081981,13.67166 -1.476224,0.46051 -7.073249,-10.03522 -7.554324,-12.19763 -1.95407,-5.15875 2.744623,-5.15713 4.472343,-1.47403 z"
       sodipodi:nodetypes="cscc" />
    <path
       id="path1894-0"
       style="fill:#d4aa00;stroke-width:0.0303047"
       d="m 9.8578852,147.36532 c 1.6244788,-2.4896 9.5733468,-10.17934 10.6322198,-9.13063 1.098728,1.08816 -5.549202,10.95184 -7.233872,12.39036 -3.6410516,4.14412 -5.8419889,-0.007 -3.3983478,-3.25973 z"
       sodipodi:nodetypes="cscc" />
    <circle
       style="fill:#000000;stroke-width:0.056313"
       id="path2697"
       cx="19.197748"
       cy="139.87892"
       r="0.60354549" />
    <circle
       style="fill:#000000;stroke-width:0.0229422"
       id="path2697-9"
       cx="24.869846"
       cy="153.04535"
       r="0.2458889" />
    <path
       id="path3236"
       style="fill:#ffd42a;stroke-width:0.0527907"
       d="m 12.69287,145.77173 c 0,5.56579 0.0027,10.3135 -6.3707577,10.3135 -6.28386836,0 -6.32605095,-4.35481 -6.32605095,-9.92061 0,-5.5658 0.04218363,-10.23493 6.32605095,-10.23493 6.2838707,0 6.3707577,4.27623 6.3707577,9.84204 z"
       sodipodi:nodetypes="sssss" />
    <path
       id="path3236-1"
       style="fill:#000000;stroke-width:0.0336766"
       d="m 10.907648,142.84864 c 0,3.11108 0.0017,5.76487 -4.6381493,5.76487 -4.5748917,0 -4.6056026,-2.43418 -4.6056015,-5.54525 0,-3.11107 0.030712,-5.72094 4.6056015,-5.72094 4.5748933,0 4.6381493,2.39025 4.6381493,5.50132 z"
       sodipodi:nodetypes="sssss" />
    <path
       id="path3236-1-2"
       style="fill:#666666;stroke-width:0.0267274"
       d="m 9.953931,142.87584 c 0,2.4691 0.00166,4.57529 -3.6810746,4.57529 -3.630866,0 -3.655239,-1.93189 -3.655239,-4.401 0,-2.4691 0.024371,-4.54042 3.655239,-4.54042 3.630867,0 3.6810746,1.89702 3.6810746,4.36613 z"
       sodipodi:nodetypes="sssss" />
    <path
       id="path3236-1-1"
       style="fill:#000000;stroke-width:0.0385405"
       d="m 15.382359,158.55692 c 0,2.13955 0.0033,3.96462 -8.8329795,3.96462 -8.7125094,0 -8.7709955,-1.67404 -8.7709955,-3.81358 0,-2.13954 0.058486,-3.93441 8.7709955,-3.93441 8.7125065,0 8.8329795,1.64383 8.8329795,3.78337 z"
       sodipodi:nodetypes="sssss" />
    <path
       id="path3236-1-1-2"
       style="fill:#808080;stroke-width:0.0305347"
       d="m 13.553956,158.57575 c 6e-6,1.6951 0.0027,3.14105 -6.9981393,3.14105 -6.90269539,0 -6.94903221,-1.32629 -6.94903117,-3.02139 0,-1.6951 0.0463316,-3.11712 6.94903117,-3.11712 6.9026933,0 6.9981393,1.30236 6.9981393,2.99746 z"
       sodipodi:nodetypes="sssss" />
  </g>
</svg>
